<?xml version="1.0" encoding="UTF-8"?>
<svg width="1200pt" height="1200pt" version="1.1" viewBox="0 0 1200 1200" xmlns="http://www.w3.org/2000/svg">
 <g fill="#e66f51">
  <path d="m908.81 618.75c57.367-74.73 118.77-146.27 183.94-214.31 46.312-49.312 70.5-98.25 71.812-145.69v-11.25c-0.86719-18.621-5.5273-36.867-13.688-53.625 17.395-29.273 19.422-65.188 5.4375-96.234s-42.223-53.328-75.672-59.703-67.906 3.9609-92.328 27.688l-350.81 334.69 163.12 163.12 308.44-322.5c0.14844 2.9375 0.14844 5.875 0 8.8125 1.6875 35.625-17.438 75-56.25 117-46.875 49.688-84.938 93.75-114.38 127.69-47.438 56.25-72.188 89.438-73.875 91.688-3.8359 5.2227-5.6797 11.648-5.1992 18.109 0.48438 6.4648 3.2578 12.543 7.8242 17.141l3.1875 2.8125c5.793 4.4453 13.129 6.375 20.359 5.3516 7.2305-1.0234 13.746-4.9102 18.078-10.789z"/>
  <path d="m212.25 1094.8-108.38-108.38c-27.039 26.961-43.191 62.941-45.375 101.06v8.625l-22.688 56.25c-1.2422 2.9492-0.57422 6.3594 1.6914 8.6211 2.2617 2.2656 5.6719 2.9336 8.6211 1.6914l56.25-22.688h8.625c38.293-1.9961 74.492-18.09 101.62-45.188z"/>
  <path d="m285.56 788.44-168.75 168.75 124.69 124.69 168.75-168.75zm-96 187.5c-5.1758 5.1758-13.574 5.1758-18.75 0s-5.1758-13.574 0-18.75l115.69-115.69c5.1758-5.1758 13.574-5.1758 18.75 0s5.1758 13.574 0 18.75zm51 51c-5.1758 5.1758-13.574 5.1758-18.75 0s-5.1758-13.574 0-18.75l115.69-114.75c5.1758-5.1758 13.574-5.1758 18.75 0s5.1758 13.574 0 18.75z"/>
  <path d="m308.38 765.58 324.43-324.43 124.63 124.63-324.43 324.43z"/>
 </g>
</svg>
