<?xml version="1.0" encoding="UTF-8"?>
<svg width="1200pt" height="1200pt" version="1.1" viewBox="0 0 1200 1200" xmlns="http://www.w3.org/2000/svg">
 <path d="m195.57 0 0.14453 1200h808.69v-1200zm277.68 117.6c46.766 0 84.672 37.906 84.672 84.672 0 46.766-37.906 84.684-84.672 84.684-46.766 0-84.684-37.906-84.684-84.684 0.011719-46.766 37.918-84.672 84.684-84.672zm-143.38 281.54c0-55.297 44.82-100.13 100.11-100.13l86.965 0.023437c55.285 0 99.719 44.797 99.719 100.11v67.715h-286.79zm540.05 631.19h-540.05v-128.88h540.05zm0-279.67h-540.05v-128.88h540.05zm0-283.61h-170.93v-128.87h170.93z" fill="#e66f51"/>
</svg>
