<?xml version="1.0" encoding="UTF-8"?>
<svg width="1200pt" height="1200pt" version="1.1" viewBox="0 0 1200 1200" xmlns="http://www.w3.org/2000/svg">
 <path d="m79.199 534.6 252-145.8 267.6 464.4 541.2-312-277.2-481.2-802.8 463.8 19.199 10.801m488.4-158.4 75-43.199 74.398 42.602-1.1992 0.59766-73.801 43.199v297.6l-74.398-43.199v-297.6m-244.2 39-210.6 121.2v318.6l162.6 94.199v-213h0.60156l129.6 75.602v213l90.598 51.598c2 1.2031 4.4023 2.6016 7.1992 4.2031l48 28.199c3.6016 1.5977 6.8008 3.3984 9.6016 5.3984 1.1992 0.40234 2.6016 1.1992 4.1992 2.4023l3.6016 2.3984c0.39844 0 1.3984 0.39844 3 1.1992l10.801 6v-261.6l-259.2-449.4m759 435v-250.8l-479.4 276v251.4l365.4-210c38-22.402 76-44.602 114-66.602m-113.4-100.8v85.203l-58.801 34.199v-85.199l58.801-34.203m-240 138 58.199-33.598v84.598l-58.199 34.203z" fill="#e66f51"/>
</svg>
